<svg width="1462" height="1939" viewBox="0 0 1462 1939" fill="none" xmlns="http://www.w3.org/2000/svg">
<path d="M732.173 1752.1V434.461M732.173 434.461V15H842.253C871.453 15 900.582 17.8759 929.218 23.5859L947.495 27.2305C1009.28 39.5511 1066.94 67.3449 1115.06 108.011V108.011C1178.68 161.778 1181.4 258.93 1120.87 316.165L1113.2 323.424C1066.24 367.833 1009.16 400.125 946.905 417.504L941.568 418.993C904.801 429.258 866.806 434.461 828.632 434.461H732.173Z" stroke="black" stroke-width="30"/>
<path d="M164.27 456.317L1300.08 1594.82M1300.08 456.317L164.27 1594.82" stroke="black" stroke-width="15"/>
<path d="M250.883 872.5C249.216 878.833 247.883 887.333 246.883 898C246.216 908.333 245.716 921 245.383 936V1028V1118.5C246.049 1149.83 247.716 1171.33 250.383 1183H206.883C210.549 1170.33 212.549 1149 212.883 1119C212.883 1057.67 212.883 1010 212.883 976C212.883 942 212.716 921.167 212.383 913.5C212.049 905.833 211.383 898.667 210.383 892C209.716 885.333 208.549 878.833 206.883 872.5H250.883Z" fill="black"/>
<path d="M1394.83 871.5C1389.83 880.833 1386.49 901.667 1384.83 934C1384.49 940.333 1384.16 951.333 1383.83 967C1383.83 982.667 1383.83 1003.17 1383.83 1028.5V1120C1384.16 1135 1384.66 1147.67 1385.33 1158C1386.33 1168.33 1387.66 1176.67 1389.33 1183H1347.33C1348.99 1176.67 1350.16 1168.33 1350.83 1158C1351.83 1147.33 1352.49 1134.5 1352.83 1119.5V1029.5V906.5C1349.16 921.833 1337.49 948.833 1317.83 987.5C1298.16 1025.83 1270.66 1076.17 1235.33 1138.5C1214.66 1103.17 1196.66 1071.17 1181.33 1042.5C1144.66 974.167 1123.66 929.667 1118.33 909V1029.5V1119.5C1118.66 1134.83 1119.16 1147.83 1119.83 1158.5C1120.83 1168.83 1122.16 1177 1123.83 1183H1083.33C1084.99 1176.67 1086.16 1168.33 1086.83 1158C1087.83 1147.67 1088.49 1135 1088.83 1120V1028.5C1088.83 1003.17 1088.83 982.667 1088.83 967C1088.83 951.333 1088.66 940.333 1088.33 934C1086.66 901.667 1083.33 880.833 1078.33 871.5H1127.33L1234.83 1077L1344.33 871.5H1394.83Z" fill="black"/>
</svg>
